<?xml version="1.0"?>
<svg id="Layer_1" xmlns="http://www.w3.org/2000/svg" version="1.1" viewBox="0 0 1771.69 553.07">
  
  <defs>
    
    
  </defs>
  <g id="Layer_2">
    <path fill="#ffffff" d="M541.09,478.13s9.16,15.93,21.51,29.47c12.35,13.54,23.9,18.32,23.9,18.32,0,0,169.22-114.5,227.32-125.46,47.49-8.96,130.83-.9,130.83-.9l87.82-53.77s-125.76-12.01-209.78-5.29c-20.06,1.6-40.49,4.26-58.95,12.26-83.06,36.01-222.64,125.36-222.64,125.36h-.01Z"></path>
  </g>
  <g id="Layer_3">
    <path fill="#ffffff" d="M600.84,533.99s138.18-87.71,191.77-110.52c60.34-25.69,127.85-12.55,127.85-12.55l-221.64,127.25s-24.49,11.95-66.31,6.57-31.66-10.75-31.66-10.75h-.01Z"></path>
  </g>
  <g id="Layer_4">
    <path fill="#ffffff" d="M579.33,551.9h-45.41c-47.8,0-70.5,1.2-103.95-41.82-33.46-43.01-118.29-194.75-160.11-270.03-41.82-75.27-70.5-108.73-106.34-121.87-35.84-13.14-102.75-1.2-102.75-1.2L-.17,10.64C16.56,3.47,85.86-4.89,140.82,5.86c106.47,20.83,140.98,71.69,168.46,107.53,26.4,34.44,106.83,179.14,167.14,291.11,2.47,4.59,4.92,9.11,7.31,13.58,13.8,25.72,26.26,46.65,37.27,63.64.02.04.04.07.06.1,37.54,57.94,58.25,70.07,58.25,70.07h.02,0Z"></path>
  </g>
  <g id="Layer_5">
    <path fill="#ffffff" d="M446.71,550.71s-44.95,6.2-85.25,1.27c-10.02-1.22-19.75-3.13-28.43-6-10.64-4.23-20.48-10.61-28.81-18.95-4.66-5.83-10.83-14.62-18.14-25.67-63.04-95.44-210.96-360.48-210.96-360.48,14.7-4.92,37.6-9.97,63.48-4.22,0,0,16.69,2.04,31.83,12.17,1.3.87,2.6,1.79,3.87,2.79,7.15,5.61,15.04,13.97,23.55,24.55,0,0,.02.02.02.04,48.08,59.86,115.76,191.04,179.55,301.6,35.84,62.13,69.3,72.88,69.3,72.88v.02h-.01Z"></path>
  </g>
  <g id="Layer_6">
    <path fill="#ffffff" d="M768.71,142.08v144.57h-165.48s-105.15-17.33-105.15-130.24,104.55-115.9,104.55-115.9h149.95v40.62h-141.59s-67.51,1.79-69.3,80.65c-1.79,78.86,72.88,83.04,72.88,83.04h109.92v-66.91h-112.91v-35.25s157.12,1.19,157.12-.6v.02h.01,0Z"></path>
  </g>
  <g id="Layer_7">
    <path fill="#ffffff" d="M802.62,285.77h48.43l110.95-185.8,54.6,89.82h-73.97l-19.37,35.22h113.6l35.22,61.64h52.84l-152.47-251.36c-4.73-7.8-16.07-7.76-20.74.09l-149.08,250.4h0Z"></path>
  </g>
  <g id="Layer_8">
    <path fill="#ffffff" d="M1447.83,285.77h48.43l110.95-185.8,54.6,89.82h-73.97l-19.37,35.22h113.6l35.22,61.64h52.84l-152.47-251.36c-4.73-7.8-16.07-7.76-20.74.09l-149.08,250.4h-.01Z"></path>
  </g>
  <g id="Layer_9">
    <path fill="#ffffff" d="M1413.62,38.43v42.12h-174.74s-31.36-1.79-31.36,29.57,29.57,29.57,29.57,29.57h118.29s69-4.48,69,79.76c-.11,74.29-108.43,66.31-108.43,66.31h-150.55v-42.12h150.55l40.79-.75s29.88-1.35,29.88-31.82-30.35-32.85-30.35-32.85h-133.52s-59.14-6.27-59.14-69,63.62-69,63.62-69l186.39-1.79Z"></path>
  </g>
</svg>