<?xml version="1.0"?>
<svg id="Layer_1" xmlns="http://www.w3.org/2000/svg" version="1.1" viewBox="0 0 1920 1080">
  
  <defs>
    
    
  </defs>
  <path fill="#0a1c44" d="M991.51,890.34s15.41,26.8,36.19,49.59c20.78,22.78,40.22,30.83,40.22,30.83,0,0,284.74-192.66,382.5-211.11,79.91-15.08,220.14-1.51,220.14-1.51l147.77-90.48s-211.61-20.21-352.99-8.9c-33.75,2.69-68.13,7.17-99.19,20.63-139.76,60.59-374.63,210.94-374.63,210.94l-.02.02h.01Z"></path>
  <path fill="#0a1c44" d="M1092.05,984.34s232.51-147.59,322.68-185.97c101.53-43.23,215.13-21.12,215.13-21.12l-372.94,214.12s-41.21,20.11-111.58,11.06-53.27-18.09-53.27-18.09h-.02,0Z"></path>
  <path fill="#0a1c44" d="M1055.86,1014.47h-76.41c-80.43,0-118.63,2.02-174.91-70.37-56.3-72.37-199.04-327.7-269.41-454.37-70.37-126.65-118.63-182.96-178.93-205.07-60.31-22.11-172.89-2.02-172.89-2.02L80.76,103.72c28.15-12.06,144.76-26.13,237.24-8.04,179.15,35.05,237.22,120.63,283.46,180.94,44.42,57.95,179.76,301.43,281.24,489.84,4.16,7.72,8.28,15.33,12.3,22.85,23.22,43.28,44.19,78.5,62.71,107.08.03.07.07.12.1.17,63.17,97.49,98.01,117.9,98.01,117.9l.03.02h.01Z"></path>
  <path fill="#0a1c44" d="M832.7,1012.47s-75.64,10.43-143.45,2.14c-16.86-2.05-33.23-5.27-47.84-10.1-17.9-7.12-34.46-17.85-48.48-31.89-7.84-9.81-18.22-24.6-30.52-43.19-106.07-160.59-354.97-606.56-354.97-606.56,24.74-8.28,63.27-16.78,106.81-7.1,0,0,28.08,3.43,53.56,20.48,2.19,1.46,4.37,3.01,6.51,4.69,12.03,9.44,25.31,23.51,39.63,41.31.02.02.03.03.03.07,80.9,100.72,194.78,321.45,302.12,507.49,60.31,104.54,116.61,122.63,116.61,122.63l-.02.03h.01Z"></path>
</svg>