<?xml version="1.0"?>
<svg version="1.1" viewBox="0 0 1046.99 327.1416" id="svg8" width="1046.99" height="327.1416" xmlns:inkscape="http://www.inkscape.org/namespaces/inkscape" xmlns:sodipodi="http://sodipodi.sourceforge.net/DTD/sodipodi-0.dtd" xmlns="http://www.w3.org/2000/svg" xmlns:svg="http://www.w3.org/2000/svg">
  <namedview id="namedview8" pagecolor="#505050" bordercolor="#eeeeee" borderopacity="1"></namedview>
  
  <defs id="defs1">
    
    
  </defs>
  <g id="Layer_2" transform="translate(-14.41,-13.852315)">
    <path fill="#0a1c44" d="m 334.53,296.2 c 0,0 5.42,9.42 12.72,17.43 7.3,8.01 14.13,10.84 14.13,10.84 0,0 100.08,-67.72 134.44,-74.2 28.09,-5.3 77.38,-0.53 77.38,-0.53 l 51.94,-31.8 c 0,0 -74.38,-7.1 -124.07,-3.13 -11.86,0.95 -23.95,2.52 -34.87,7.25 -49.13,21.3 -131.67,74.14 -131.67,74.14 z" id="path1"></path>
  </g>
  <g id="Layer_3" transform="translate(-14.41,-13.852315)">
    <path fill="#0a1c44" d="m 369.86,329.23 c 0,0 81.72,-51.87 113.42,-65.37 35.69,-15.19 75.61,-7.42 75.61,-7.42 L 427.8,331.7 c 0,0 -14.49,7.07 -39.22,3.89 -24.73,-3.18 -18.73,-6.36 -18.73,-6.36 z" id="path2"></path>
  </g>
  <g id="Layer_4" transform="translate(-14.41,-13.852315)">
    <path fill="#0a1c44" d="m 357.14,339.83 h -26.85 c -28.27,0 -41.69,0.71 -61.48,-24.73 C 249.02,289.67 198.85,199.92 174.11,155.4 149.38,110.88 132.42,91.09 111.22,83.32 90.02,75.55 50.45,82.61 50.45,82.61 L 14.41,19.72 c 9.89,-4.24 50.88,-9.19 83.39,-2.83 62.97,12.32 83.38,42.4 99.63,63.6 15.61,20.37 63.18,105.95 98.85,172.17 1.46,2.71 2.91,5.39 4.32,8.03 8.16,15.21 15.53,27.59 22.04,37.64 0.01,0.02 0.02,0.04 0.04,0.06 22.2,34.27 34.45,41.44 34.45,41.44 z" id="path3"></path>
  </g>
  <g id="Layer_5" transform="translate(-14.41,-13.852315)">
    <path fill="#0a1c44" d="m 278.7,339.12 c 0,0 -26.59,3.66 -50.42,0.75 -5.93,-0.72 -11.68,-1.85 -16.81,-3.55 -6.29,-2.5 -12.11,-6.27 -17.04,-11.21 -2.76,-3.45 -6.41,-8.64 -10.73,-15.18 C 146.41,253.48 58.93,96.73 58.93,96.73 c 8.69,-2.91 22.24,-5.9 37.54,-2.49 0,0 9.87,1.21 18.83,7.2 0.77,0.51 1.54,1.06 2.29,1.65 4.23,3.32 8.89,8.26 13.93,14.52 0,0 0.01,0.01 0.01,0.02 28.43,35.4 68.46,112.99 106.19,178.38 21.2,36.74 40.99,43.1 40.99,43.1 z" id="path4"></path>
  </g>
  <g id="Layer_6" transform="translate(-14.41,-13.852315)">
    <path fill="#0a1c44" d="m 469.14,97.45 v 85.51 h -97.87 c 0,0 -62.19,-10.25 -62.19,-77.03 0,-66.78 61.83,-68.55 61.83,-68.55 h 88.69 v 24.03 h -83.74 c 0,0 -39.93,1.06 -40.99,47.7 -1.06,46.64 43.11,49.11 43.11,49.11 h 65.01 V 118.65 H 376.21 V 97.8 c 0,0 92.93,0.71 92.93,-0.35 z" id="path5"></path>
  </g>
  <g id="Layer_7" transform="translate(-14.41,-13.852315)">
    <path fill="#0a1c44" d="m 489.2,182.43 h 28.64 l 65.62,-109.89 32.29,53.12 H 572 l -11.46,20.83 h 67.18 l 20.83,36.46 H 679.8 L 589.63,34.29 c -2.8,-4.62 -9.51,-4.59 -12.27,0.05 l -88.17,148.09 z" id="path6"></path>
  </g>
  <g id="Layer_8" transform="translate(-14.41,-13.852315)">
    <path fill="#0a1c44" d="m 870.8,182.43 h 28.64 l 65.62,-109.89 32.29,53.12 H 953.6 l -11.46,20.83 h 67.18 l 20.83,36.46 h 31.25 L 971.23,34.29 c -2.8,-4.62 -9.51,-4.59 -12.27,0.05 l -88.17,148.09 z" id="path7"></path>
  </g>
  <g id="Layer_9" transform="translate(-14.41,-13.852315)">
    <path fill="#0a1c44" d="M 850.56,36.15 V 61.06 H 747.21 c 0,0 -18.55,-1.06 -18.55,17.49 0,18.55 17.49,17.49 17.49,17.49 h 69.96 c 0,0 40.81,-2.65 40.81,47.17 -0.07,43.94 -64.13,39.22 -64.13,39.22 h -89.04 v -24.91 h 89.04 l 24.13,-0.44 c 0,0 17.67,-0.8 17.67,-18.82 0,-18.02 -17.95,-19.43 -17.95,-19.43 h -78.97 c 0,0 -34.98,-3.71 -34.98,-40.81 0,-37.1 37.63,-40.81 37.63,-40.81 z" id="path8"></path>
  </g>
</svg>