<?xml version="1.0" encoding="UTF-8" standalone="no"?>
<svg
   version="1.1"
   viewBox="0 0 1770.3 553.1604"
   id="svg8"
   sodipodi:docname="GASA_logo_white.svg"
   width="1770.3"
   height="553.1604"
   inkscape:version="1.4.2 (ebf0e940d0, 2025-05-08)"
   xmlns:inkscape="http://www.inkscape.org/namespaces/inkscape"
   xmlns:sodipodi="http://sodipodi.sourceforge.net/DTD/sodipodi-0.dtd"
   xmlns="http://www.w3.org/2000/svg"
   xmlns:svg="http://www.w3.org/2000/svg">
  <sodipodi:namedview
     id="namedview8"
     pagecolor="#505050"
     bordercolor="#eeeeee"
     borderopacity="1"
     inkscape:showpageshadow="0"
     inkscape:pageopacity="0"
     inkscape:pagecheckerboard="0"
     inkscape:deskcolor="#505050"
     inkscape:zoom="0.78611111"
     inkscape:cx="805.22968"
     inkscape:cy="182.54417"
     inkscape:window-width="1920"
     inkscape:window-height="1060"
     inkscape:window-x="0"
     inkscape:window-y="0"
     inkscape:window-maximized="1"
     inkscape:current-layer="svg8" />
  <!-- Generator: Adobe Illustrator 29.0.0, SVG Export Plug-In . SVG Version: 2.1.0 Build 186)  -->
  <defs
     id="defs1">
    <style
       id="style1">
      .st0 {
        fill: #fff;
      }
    </style>
  </defs>
  <g
     id="Layer_2"
     transform="translate(-80.76,-275.84384)">
    <path
       class="st0"
       d="m 622.02,753.25 c 0,0 9.16,15.93 21.51,29.47 12.35,13.54 23.9,18.32 23.9,18.32 0,0 169.22,-114.5 227.32,-125.46 47.49,-8.96 130.83,-0.9 130.83,-0.9 l 87.82,-53.77 c 0,0 -125.76,-12.01 -209.78,-5.29 -20.06,1.6 -40.49,4.26 -58.95,12.26 -83.06,36.01 -222.64,125.36 -222.64,125.36 z"
       id="path1" />
  </g>
  <g
     id="Layer_3"
     transform="translate(-80.76,-275.84384)">
    <path
       class="st0"
       d="m 681.77,809.11 c 0,0 138.18,-87.71 191.77,-110.52 60.34,-25.69 127.85,-12.55 127.85,-12.55 L 779.75,813.29 c 0,0 -24.49,11.95 -66.31,6.57 -41.82,-5.38 -31.66,-10.75 -31.66,-10.75 z"
       id="path2" />
  </g>
  <g
     id="Layer_4"
     transform="translate(-80.76,-275.84384)">
    <path
       class="st0"
       d="m 660.26,827.02 h -45.41 c -47.8,0 -70.5,1.2 -103.95,-41.82 C 477.44,742.19 392.61,590.45 350.79,515.17 308.97,439.9 280.29,406.44 244.45,393.3 208.61,380.16 141.7,392.1 141.7,392.1 L 80.76,285.76 c 16.73,-7.17 86.03,-15.53 140.99,-4.78 106.47,20.83 140.98,71.69 168.46,107.53 26.4,34.44 106.83,179.14 167.14,291.11 2.47,4.59 4.92,9.11 7.31,13.58 13.8,25.72 26.26,46.65 37.27,63.64 0.02,0.04 0.04,0.07 0.06,0.1 37.54,57.94 58.25,70.07 58.25,70.07 z"
       id="path3" />
  </g>
  <g
     id="Layer_5"
     transform="translate(-80.76,-275.84384)">
    <path
       class="st0"
       d="m 527.64,825.83 c 0,0 -44.95,6.2 -85.25,1.27 -10.02,-1.22 -19.75,-3.13 -28.43,-6 -10.64,-4.23 -20.48,-10.61 -28.81,-18.95 -4.66,-5.83 -10.83,-14.62 -18.14,-25.67 C 303.97,681.04 156.05,416 156.05,416 c 14.7,-4.92 37.6,-9.97 63.48,-4.22 0,0 16.69,2.04 31.83,12.17 1.3,0.87 2.6,1.79 3.87,2.79 7.15,5.61 15.04,13.97 23.55,24.55 0.01,0.01 0.02,0.02 0.02,0.04 48.08,59.86 115.76,191.04 179.55,301.6 35.84,62.13 69.3,72.88 69.3,72.88 z"
       id="path4" />
  </g>
  <g
     id="Layer_6"
     transform="translate(-80.76,-275.84384)">
    <path
       class="st0"
       d="M 849.64,417.2 V 561.77 H 684.16 c 0,0 -105.15,-17.33 -105.15,-130.24 0,-112.91 104.55,-115.9 104.55,-115.9 h 149.95 v 40.62 H 691.92 c 0,0 -67.51,1.79 -69.3,80.65 -1.79,78.86 72.88,83.04 72.88,83.04 H 805.42 V 453.03 H 692.51 v -35.25 c 0,0 157.12,1.19 157.12,-0.6 z"
       id="path5" />
  </g>
  <g
     id="Layer_7"
     transform="translate(-80.76,-275.84384)">
    <path
       class="st0"
       d="m 883.55,560.89 h 48.43 l 110.95,-185.8 54.6,89.82 h -73.97 l -19.37,35.22 h 113.6 l 35.22,61.64 h 52.84 L 1053.38,310.41 c -4.73,-7.8 -16.07,-7.76 -20.74,0.09 L 883.56,560.9 Z"
       id="path6" />
  </g>
  <g
     id="Layer_8"
     transform="translate(-80.76,-275.84384)">
    <path
       class="st0"
       d="m 1528.76,560.89 h 48.43 l 110.95,-185.8 54.6,89.82 h -73.97 l -19.37,35.22 H 1763 l 35.22,61.64 h 52.84 L 1698.59,310.41 c -4.73,-7.8 -16.07,-7.76 -20.74,0.09 l -149.08,250.4 z"
       id="path7" />
  </g>
  <g
     id="Layer_9"
     transform="translate(-80.76,-275.84384)">
    <path
       class="st0"
       d="m 1494.55,313.55 v 42.12 h -174.74 c 0,0 -31.36,-1.79 -31.36,29.57 0,31.36 29.57,29.57 29.57,29.57 h 118.29 c 0,0 69,-4.48 69,79.76 -0.11,74.29 -108.43,66.31 -108.43,66.31 h -150.55 v -42.12 h 150.55 l 40.79,-0.75 c 0,0 29.88,-1.35 29.88,-31.82 0,-30.47 -30.35,-32.85 -30.35,-32.85 h -133.52 c 0,0 -59.14,-6.27 -59.14,-69 0,-62.73 63.62,-69 63.62,-69 z"
       id="path8" />
  </g>
</svg>
